<?xml version="1.0" encoding="UTF-8"?>
<svg width="151.72mm" height="36.717mm" version="1.1" viewBox="0 0 151.72 36.717" xmlns="http://www.w3.org/2000/svg" xmlns:cc="http://creativecommons.org/ns#" xmlns:dc="http://purl.org/dc/elements/1.1/" xmlns:rdf="http://www.w3.org/1999/02/22-rdf-syntax-ns#">
<metadata>
<rdf:RDF>
<cc:Work rdf:about="">
<dc:format>image/svg+xml</dc:format>
<dc:type rdf:resource="http://purl.org/dc/dcmitype/StillImage"/>
<dc:title/>
</cc:Work>
</rdf:RDF>
</metadata>
<g transform="translate(-16.041 -130.14)">
<g transform="matrix(2.1599 0 0 2.1599 -405 -753.61)" fill="#1a1a1a" aria-label="sleck">
<path d="m224.05 421.56q0 0.86914-0.33203 1.5234-0.32227 0.64454-0.95703 1.0742-0.625 0.42969-1.543 0.64453-0.9082 0.21485-2.0801 0.21485-1.9629 0-3.0957-0.69336t-1.5332-2.1484l2.4512-0.35156q0.0977 0.35156 0.27343 0.61523 0.17579 0.25391 0.45899 0.42969 0.2832 0.16602 0.68359 0.25391 0.41016 0.0781 0.95703 0.0781 0.47852 0 0.86914-0.0684 0.4004-0.0781 0.6836-0.23437 0.29297-0.16602 0.44922-0.41992 0.16601-0.25391 0.16601-0.60547 0-0.3125-0.13672-0.50782-0.12695-0.20507-0.40039-0.34179-0.26367-0.14649-0.68359-0.25391-0.41016-0.11719-0.9668-0.23437-0.77148-0.17578-1.4258-0.41993-0.64453-0.24414-1.1133-0.61523-0.46875-0.38086-0.73242-0.9082-0.26367-0.53711-0.26367-1.2793 0-0.87891 0.36132-1.4844 0.3711-0.61524 1.0059-0.9961 0.64454-0.39062 1.5039-0.5664 0.85938-0.17579 1.8555-0.17579 0.9082 0 1.6309 0.14649 0.73242 0.13672 1.2598 0.46875 0.52735 0.33203 0.85938 0.86914 0.3418 0.53711 0.46875 1.3281l-2.4512 0.28321q-0.16602-0.67383-0.64453-0.97657-0.47852-0.30273-1.3086-0.30273-0.41992 0-0.79101 0.0586-0.36133 0.0488-0.63477 0.18555-0.26367 0.13672-0.41992 0.36133t-0.15625 0.56641q0 0.3125 0.18555 0.52734 0.18554 0.20508 0.51757 0.36133 0.33204 0.14648 0.79102 0.26367 0.45898 0.10742 0.99609 0.23437 0.6836 0.15625 1.2695 0.38086 0.59571 0.22461 1.0352 0.58594 0.43945 0.35156 0.68359 0.86914 0.25391 0.51758 0.25391 1.2598z"/>
<path d="m225.76 424.82 2.8125-14.492h2.7441l-2.8223 14.492z"/>
<path d="m234.46 420.17q-0.0391 0.21484-0.0586 0.42969-0.01 0.21484-0.01 0.43945 0 1.0352 0.44922 1.5918 0.45898 0.54687 1.3476 0.54687 0.41016 0 0.73242-0.12695 0.32227-0.12696 0.57618-0.3418 0.2539-0.22461 0.43945-0.52734 0.19531-0.30274 0.33203-0.6543l2.3926 0.72266q-0.29297 0.625-0.66406 1.1426-0.3711 0.50782-0.90821 0.86915-0.53711 0.36132-1.2891 0.55664-0.75195 0.19531-1.7969 0.19531-1.0742 0-1.9043-0.30274-0.82031-0.30273-1.3867-0.85937-0.55664-0.55664-0.84961-1.3477-0.2832-0.79101-0.2832-1.7676 0-1.6016 0.41992-2.8418 0.42969-1.2402 1.1816-2.0898 0.76172-0.85937 1.8066-1.2988 1.0449-0.44922 2.2852-0.44922 1.0938 0 1.8945 0.29297 0.80078 0.29296 1.3281 0.83007 0.52735 0.52735 0.78125 1.2695 0.25391 0.73242 0.25391 1.6211 0 0.43945-0.0684 1.0156-0.0586 0.56641-0.16602 1.084zm4.5312-1.8262q0.0195-0.15625 0.0195-0.28321 0.01-0.12695 0.01-0.26367 0-1.0449-0.48828-1.5234-0.47851-0.47851-1.2598-0.47851-0.33203 0-0.70313 0.10742-0.37109 0.10742-0.72265 0.40039-0.3418 0.2832-0.625 0.78125-0.27344 0.48828-0.43946 1.2598z"/>
<path d="m247.33 423.13q0.81055 0 1.3379-0.50781 0.52735-0.51758 0.83985-1.5234l2.6465 0.48828q-0.23438 0.77149-0.64453 1.4062-0.40039 0.63477-1.0059 1.084-0.5957 0.44922-1.4258 0.69336-0.82031 0.24414-1.9043 0.24414-1.1328 0-1.9727-0.30274-0.83984-0.30273-1.3965-0.84961-0.54687-0.55664-0.82031-1.3184-0.27344-0.76172-0.27344-1.6797 0-0.39063 0.0293-0.84961 0.0391-0.45899 0.14648-0.89844 0.24414-1.084 0.61524-1.875 0.38086-0.80078 0.83984-1.3574 0.46875-0.56641 1.0059-0.91797 0.53711-0.36133 1.1035-0.55664 0.56641-0.20508 1.1426-0.27344 0.58594-0.0781 1.1426-0.0781 1.0449 0 1.8066 0.2832t1.2695 0.77148q0.51758 0.47852 0.78125 1.123 0.27344 0.63477 0.33203 1.3477l-2.7734 0.22461q-0.0488-0.87891-0.44922-1.3672-0.39063-0.49805-1.1816-0.49805-0.54688 0-0.95703 0.18555-0.40039 0.17578-0.71289 0.57617-0.3125 0.39063-0.56641 1.0156-0.24414 0.61523-0.46875 1.4844-0.0391 0.19531-0.0781 0.41992-0.0391 0.21485-0.0781 0.43946-0.0293 0.21484-0.0488 0.41992-0.0195 0.19531-0.0195 0.36133 0 1.1816 0.43945 1.7383 0.43946 0.54687 1.2988 0.54687z"/>
<path d="m260.34 424.82-1.8359-4.8535-1.3672 0.73242-0.83008 4.1211h-2.7344l2.8125-14.492h2.7441l-1.6309 8.3008 4.541-4.375h3.1445l-4.6191 4.1211 2.6856 6.4453z"/>
</g>
<g transform="translate(0 56.098)">
<rect transform="matrix(.91828 .39594 -.16425 .98642 0 0)" x="40.936" y="57.632" width="8.0952" height="36.38" ry="6.0634" fill="#000080" opacity=".744"/>
<rect transform="matrix(.91828 .39594 -.16425 .98642 0 0)" x="51.408" y="53.02" width="8.0952" height="36.38" ry="6.0634" fill="#800080" opacity=".744"/>
<rect transform="matrix(-.39594 .91828 -.98642 -.16425 0 0)" x="79.189" y="-86.269" width="8.0952" height="36.38" ry="6.0634" fill="#008080" opacity=".744"/>
<rect transform="matrix(-.39594 .91828 -.98642 -.16425 0 0)" x="89.661" y="-90.881" width="8.0952" height="36.38" ry="6.0634" fill="#0ff" opacity=".744"/>
</g>
</g>
</svg>
